<svg width="32" height="32" viewBox="0 0 32 32" fill="none" xmlns="http://www.w3.org/2000/svg">
<path d="M0 0H32V31.3063H0V0Z" fill="white" fill-opacity="0.01"/>
<path d="M22.6667 3.91333H9.33333C6.38781 3.91333 4 6.24938 4 9.13105V22.1753C4 25.057 6.38781 27.3931 9.33333 27.3931H22.6667C25.6122 27.3931 28 25.057 28 22.1753V9.13105C28 6.24938 25.6122 3.91333 22.6667 3.91333Z" stroke="#777777" stroke-width="4" stroke-linejoin="round"/>
<path d="M16.0001 20.8709C18.9456 20.8709 21.3334 18.5348 21.3334 15.6531C21.3334 12.7715 18.9456 10.4354 16.0001 10.4354C13.0545 10.4354 10.6667 12.7715 10.6667 15.6531C10.6667 18.5348 13.0545 20.8709 16.0001 20.8709Z" stroke="#777777" stroke-width="4" stroke-linejoin="round"/>
<path d="M23.3333 9.78324C24.0697 9.78324 24.6667 9.19924 24.6667 8.47881C24.6667 7.75837 24.0697 7.17438 23.3333 7.17438C22.5969 7.17438 22 7.75837 22 8.47881C22 9.19924 22.5969 9.78324 23.3333 9.78324Z" fill="#777777"/>
</svg>
