<svg width="18" height="28" viewBox="0 0 18 28" fill="none" xmlns="http://www.w3.org/2000/svg">
<path d="M0.66417 0C0.27965 0 0 0.27965 0 0.66417V27.3358C0 27.7203 0.27965 28 0.66417 28H16.8489C17.2335 28 17.5131 27.7203 17.5131 27.3358V0.66417C17.5131 0.27965 17.2335 0 16.8489 0L0.66417 0ZM3.49563 3.49563H13.9825V20.9738H3.49563V3.49563ZM8.73908 22.7216C9.71785 22.7216 10.4869 23.4906 10.4869 24.4694C10.4869 25.4482 9.71785 26.2172 8.73908 26.2172C7.7603 26.2172 6.99126 25.4482 6.99126 24.4694C6.99126 23.4906 7.7603 22.7216 8.73908 22.7216Z" fill="#777777"/>
</svg>
