<svg width="169" height="164" viewBox="0 0 169 164" fill="none" xmlns="http://www.w3.org/2000/svg">
<g id="&#240;&#159;&#166;&#134; icon &#34;checkmark circle 2&#34;">
<path id="Vector" d="M84.5002 13.6492C70.5731 13.6492 56.9588 17.6517 45.3788 25.1506C33.7988 32.6495 24.7733 43.308 19.4437 55.7782C14.114 68.2485 12.7195 81.9704 15.4366 95.2087C18.1536 108.447 24.8601 120.607 34.7081 130.152C44.556 139.696 57.1031 146.196 70.7626 148.829C84.4221 151.462 98.5805 150.111 111.447 144.945C124.314 139.78 135.312 131.033 143.049 119.81C150.787 108.587 154.917 95.3923 154.917 81.8947C154.917 72.9325 153.095 64.0582 149.557 55.7782C146.018 47.4983 140.831 39.975 134.292 33.6378C127.753 27.3006 119.991 22.2737 111.447 18.844C102.904 15.4144 93.7474 13.6492 84.5002 13.6492ZM114.779 65.584L82.5989 106.531C81.943 107.357 81.1005 108.026 80.1362 108.488C79.1719 108.949 78.1114 109.19 77.036 109.193C75.9664 109.198 74.9096 108.968 73.9457 108.518C72.9818 108.069 72.1362 107.413 71.4731 106.6L54.2914 85.3752C53.7227 84.6672 53.3035 83.8575 53.0576 82.9925C52.8118 82.1275 52.7441 81.224 52.8586 80.3336C52.973 79.4432 53.2673 78.5834 53.7245 77.8032C54.1818 77.0231 54.7932 76.3379 55.5237 75.7867C56.9991 74.6735 58.8703 74.174 60.7257 74.398C61.6444 74.5089 62.5316 74.7941 63.3366 75.2373C64.1415 75.6805 64.8486 76.273 65.4173 76.981L76.8952 91.176L103.513 57.0533C104.077 56.3363 104.781 55.7341 105.585 55.2809C106.39 54.8277 107.278 54.5325 108.2 54.4121C109.122 54.2917 110.059 54.3484 110.959 54.5791C111.858 54.8098 112.702 55.2099 113.441 55.7566C114.181 56.3033 114.803 56.9859 115.27 57.7653C115.738 58.5448 116.042 59.4058 116.167 60.2994C116.291 61.1929 116.232 62.1014 115.994 62.973C115.756 63.8447 115.343 64.6623 114.779 65.3792V65.584Z" fill="#5980EF"/>
</g>
</svg>
