<svg width="23" height="20" viewBox="0 0 23 20" fill="none" xmlns="http://www.w3.org/2000/svg">
<path d="M0 16.9189C1.16747 17.5462 9.61848 22.2808 15.6278 18.6318C21.6371 14.9828 21.3056 8.69606 21.3056 5.8153C21.85 4.70694 23 4.14347 23 1.14341C21.8704 2.15753 20.7476 2.50259 19.6317 2.17859C18.5384 0.55857 17.0342 -0.15796 15.1191 0.0290221C12.2465 0.309493 11.1955 3.04853 11.5048 6.59218C7.07547 8.76906 3.60222 5.01412 1.81227 2.17859C1.2142 4.41171 0.637524 7.09271 1.81227 10.0585C2.59543 12.0357 4.47804 13.7073 7.46011 15.0733C4.43797 16.6652 1.95126 17.2804 0 16.9189Z" fill="#777777"/>
</svg>
