<svg width="24" height="24" viewBox="0 0 24 24" fill="none" xmlns="http://www.w3.org/2000/svg">
<path id="Union" fill-rule="evenodd" clip-rule="evenodd" d="M1.54297 10.6471C1.54297 5.61906 5.61906 1.54297 10.6471 1.54297C15.6752 1.54297 19.7513 5.61906 19.7513 10.6471C19.7513 12.816 18.9929 14.8077 17.7268 16.3716L21.2468 19.8916C21.6211 20.2658 21.6211 20.8726 21.2468 21.2469C20.8726 21.6211 20.2658 21.6211 19.8915 21.2469L16.3715 17.7269C14.8077 18.9929 12.816 19.7513 10.6471 19.7513C5.61906 19.7513 1.54297 15.6752 1.54297 10.6471ZM10.6471 3.45964C6.67761 3.45964 3.45964 6.67761 3.45964 10.6471C3.45964 14.6167 6.67761 17.8346 10.6471 17.8346C14.6167 17.8346 17.8346 14.6167 17.8346 10.6471C17.8346 6.67761 14.6167 3.45964 10.6471 3.45964ZM7.25899 6.77973C8.12506 5.91366 9.32429 5.3763 10.6472 5.3763C11.9701 5.3763 13.1693 5.91365 14.0354 6.77973C14.4097 7.15398 14.4097 7.76076 14.0354 8.13501C13.6612 8.50927 13.0544 8.50927 12.6801 8.13501C12.1588 7.61371 11.4414 7.29297 10.6472 7.29297C9.85302 7.29297 9.13559 7.61371 8.61428 8.13501C8.24002 8.50927 7.63324 8.50927 7.25899 8.13501C6.88474 7.76076 6.88474 7.15398 7.25899 6.77973Z" fill="black"/>
</svg>