<svg width="46" height="46" viewBox="0 0 46 46" fill="none" xmlns="http://www.w3.org/2000/svg">
<path id="Subtract" fill-rule="evenodd" clip-rule="evenodd" d="M23 3.83337C23.6522 3.83337 24.2596 4.165 24.6123 4.71359L32.6714 17.25H38.6893C41.6968 17.25 43.9609 19.9884 43.3955 22.9424L43.3955 22.9424L40.4609 38.2757C40.0287 40.5338 38.0537 42.1667 35.7547 42.1667H10.2454C7.94631 42.1667 5.97128 40.5338 5.53911 38.2757L2.60451 22.9424C2.03915 19.9885 4.30322 17.25 7.31075 17.25H13.3286L21.3878 4.71359C21.7404 4.165 22.3479 3.83337 23 3.83337ZM23 9.29445L28.1143 17.25H17.8857L23 9.29445ZM18.2084 29.7084C18.2084 27.062 20.3537 24.9167 23 24.9167C25.6464 24.9167 27.7917 27.062 27.7917 29.7084C27.7917 32.3547 25.6464 34.5 23 34.5C20.3537 34.5 18.2084 32.3547 18.2084 29.7084Z" fill="black"/>
</svg>

